<svg preserveAspectRatio="none" overflow="visible" style="display: block;" width="14" height="14" viewBox="0 0 14 14" fill="none" xmlns="http://www.w3.org/2000/svg">
<g id="Frame">
<path id="Vector" d="M6.15984 9.75935L10.3898 5.52935L9.54984 4.68935L6.15984 8.07935L4.44984 6.36935L3.60984 7.20935L6.15984 9.75935ZM6.99984 12.9993C6.16984 12.9993 5.38984 12.8417 4.65984 12.5265C3.92984 12.2113 3.29484 11.7839 2.75484 11.2443C2.21484 10.7047 1.78744 10.0697 1.47264 9.33935C1.15784 8.60895 1.00024 7.82895 0.999842 6.99935C0.999442 6.16975 1.15704 5.38975 1.47264 4.65935C1.78824 3.92895 2.21564 3.29395 2.75484 2.75435C3.29404 2.21475 3.92904 1.78735 4.65984 1.47215C5.39064 1.15695 6.17064 0.999353 6.99984 0.999353C7.82904 0.999353 8.60904 1.15695 9.33984 1.47215C10.0706 1.78735 10.7056 2.21475 11.2448 2.75435C11.784 3.29395 12.2116 3.92895 12.5276 4.65935C12.8436 5.38975 13.001 6.16975 12.9998 6.99935C12.9986 7.82895 12.841 8.60895 12.527 9.33935C12.213 10.0697 11.7856 10.7047 11.2448 11.2443C10.704 11.7839 10.069 12.2115 9.33984 12.5271C8.61064 12.8427 7.83064 13.0001 6.99984 12.9993Z" fill="currentColor"/>
</g>
</svg>
