<svg preserveAspectRatio="none" overflow="visible" style="display: block;" width="89" height="89" viewBox="0 0 89 89" fill="none" xmlns="http://www.w3.org/2000/svg">
<g id="Logo">
<path d="M65.7845 71.809C65.7845 68.4525 68.4993 65.7316 71.8481 65.7316H82.9363C86.2852 65.7316 88.9999 68.4525 88.9999 71.809V82.9225C88.9999 86.279 86.2852 89 82.9363 89H71.8481C68.4993 89 65.7845 86.279 65.7845 82.9225V71.809Z" fill="#DF520C"/>
<path d="M0 6.07748C0 2.72098 2.71478 0 6.06364 0H17.1518C20.5006 0 23.2154 2.72098 23.2154 6.07748V17.191C23.2154 20.5475 20.5006 23.2684 17.1518 23.2684H6.06364C2.71479 23.2684 0 20.5475 0 17.191V6.07748Z" fill="#DF520C"/>
<path d="M89 17.1909C89 20.5474 86.2852 23.2684 82.9364 23.2684H72.5366C70.0997 23.2684 67.7626 24.2387 66.0394 25.9658C64.3162 27.6929 63.3481 30.0354 63.3481 32.4779V55.1859C63.3481 59.6612 59.7284 63.2892 55.2633 63.2892H32.7506C30.2217 63.2892 27.7964 64.2961 26.0083 66.0883C24.2201 67.8806 23.2155 70.3114 23.2155 72.8461V82.9221C23.2155 86.2786 20.5007 88.9996 17.1519 88.9996H6.06372C2.71487 88.9996 8.7645e-05 86.2786 8.7645e-05 82.9221V71.8087C8.7645e-05 68.4522 2.71487 65.7312 6.06372 65.7312H16.4797C18.9479 65.7312 21.315 64.7485 23.0602 62.9992C24.8055 61.25 25.786 58.8775 25.786 56.4037V33.7446C25.786 29.2693 29.4057 25.6413 33.8708 25.6413H56.4783C58.9465 25.6413 61.3136 24.6586 63.0588 22.9093C64.8041 21.16 65.7846 18.7875 65.7846 16.3137V6.07749C65.7846 2.72099 68.4994 1.0876e-06 71.8482 1.0876e-06H82.9364C86.2852 1.0876e-06 89 2.72098 89 6.07748V17.1909Z" fill="#DF520C"/>
</g>
</svg>
